<svg id="Capa_1" enable-background="new 0 0 512 512" height="512" viewBox="0 0 512 512" width="512" xmlns="http://www.w3.org/2000/svg"><g><path d="m365.908 45.288c-29.448-29.233-68.433-45.288-109.899-45.288-.391 0-.787.002-1.178.004-38.653.284-75.694 14.943-104.3 41.278-3.053 2.811-3.25 7.565-.439 10.618s7.566 3.25 10.618.439c25.854-23.801 59.319-37.05 94.232-37.306.356-.003.709-.004 1.065-.004 37.469 0 72.703 14.51 99.313 40.925 26.865 26.669 41.66 62.203 41.66 100.055 0 31.427-10.115 61.159-29.25 85.982-2.534 3.287-1.924 8.006 1.363 10.54 1.367 1.054 2.98 1.564 4.582 1.564 2.25 0 4.478-1.007 5.957-2.927 21.182-27.476 32.378-60.381 32.378-95.158-.001-41.889-16.374-81.21-46.102-110.722z"/><path d="m360.309 265.482c-3.569-2.115-8.18-.938-10.296 2.634-14.987 25.29-25.495 52.679-31.278 81.499h-55.221v-112.489c14.832-8.127 62.497-37.612 56.94-78.231-3.197-23.373-19.724-32.995-34.124-34.205-11.885-.998-23.062 3.109-30.334 10.43-7.271-7.321-18.445-11.43-30.335-10.43-14.4 1.21-30.926 10.832-34.124 34.205-5.557 40.624 42.123 70.113 56.947 78.234v112.485h-51.291c-8.927-38.162-26.67-74.641-51.535-105.855-19.984-25.089-30.579-55.339-30.639-87.481-.056-29.786 9.173-58.333 26.688-82.555 2.432-3.363 1.677-8.061-1.686-10.493s-8.06-1.677-10.493 1.686c-19.386 26.809-29.6 58.411-29.539 91.39.067 35.569 11.794 69.048 33.913 96.817 22.736 28.542 39.142 61.734 47.807 96.491h-5.102c-4.15 0-7.515 3.365-7.515 7.515v23.899h-5.506c-4.15 0-7.515 3.365-7.515 7.515s3.365 7.515 7.515 7.515h5.506v16.384h-5.506c-4.15 0-7.515 3.365-7.515 7.515s3.365 7.515 7.515 7.515h5.985c2.39 15.772 13.536 28.698 28.307 33.677 3.801 28.932 28.324 50.851 58.122 50.851s54.322-21.919 58.121-50.852c14.77-4.979 25.916-17.905 28.306-33.677h5.979c4.151 0 7.515-3.364 7.515-7.515 0-4.15-3.364-7.515-7.515-7.515h-5.5v-16.384h5.5c4.151 0 7.515-3.365 7.515-7.515s-3.364-7.515-7.515-7.515h-5.5v-23.897c0-4.15-3.364-7.515-7.515-7.515h-1.291c5.563-26.074 15.237-50.877 28.844-73.837 2.115-3.571.936-8.18-2.635-10.296zm-153.88-104.549c2.441-17.844 15.144-20.816 20.493-21.266.717-.06 1.43-.089 2.14-.089 9.173 0 17.616 4.91 19.764 11.762.982 3.135 3.886 5.268 7.171 5.268 3.284 0 6.188-2.133 7.171-5.268 2.314-7.383 11.926-12.508 21.905-11.672 5.348.45 18.051 3.422 20.492 21.266 2.509 18.344-11.438 34.723-23.581 45.233-10.12 8.761-20.763 15.058-25.987 17.925-5.225-2.868-15.867-9.165-25.987-17.925-12.143-10.511-26.091-26.89-23.581-45.234zm94.234 287.397h-38.612c-4.151 0-7.515 3.365-7.515 7.515s3.364 7.515 7.515 7.515h36.411c-4.497 19.399-21.769 33.612-42.462 33.612s-37.965-14.212-42.462-33.612h18.454c4.15 0 7.515-3.365 7.515-7.515s-3.365-7.515-7.515-7.515h-20.655c-12.817 0-23.586-8.909-26.457-20.859h142.238c-2.869 11.949-13.638 20.859-26.455 20.859zm27.213-35.888h-143.752v-16.384h143.752zm-143.752-31.414v-16.384h143.752v16.384z"/></g></svg>