<svg id="Line" height="512" viewBox="0 0 64 64" width="512" xmlns="http://www.w3.org/2000/svg"><path d="m38.65527 26.38428-9.10937 9.11035-4.20117-4.20163a1.00009 1.00009 0 0 0 -1.414 1.4141l4.90816 4.90865a1.00558 1.00558 0 0 0 1.41406 0l9.81641-9.81737a1.00009 1.00009 0 0 0 -1.41409-1.4141z"/><path d="m11.67969 16.87988a.99974.99974 0 0 0 1-1 3.20865 3.20865 0 0 1 3.20019-3.21h5.96a5.16566 5.16566 0 0 0 3.67481-1.521l4.22363-4.20215a3.27491 3.27491 0 0 1 4.52637.00244c6.5911 6.558 4.60407 5.71063 13.85552 5.72058a3.20882 3.20882 0 0 1 3.20014 3.21008v5.97027a5.168 5.168 0 0 0 1.52442 3.67871l4.21777 4.19824a3.23251 3.23251 0 0 1 .002 4.544l-4.22168 4.20214a5.16637 5.16637 0 0 0 -1.52246 3.67676v5.96a3.214 3.214 0 0 1 -3.20019 3.22022h-.96a1.00012 1.00012 0 0 0 0 2 5.36063 5.36063 0 0 0 6.16008-5.22031v-5.95986a3.22228 3.22228 0 0 1 .93457-2.26074l4.22559-4.206a5.23885 5.23885 0 0 0 -.00586-7.37207l-4.21777-4.19825a3.22381 3.22381 0 0 1 -.93653-2.26269v-5.97037a5.21126 5.21126 0 0 0 -5.20019-5.21h-5.96a3.18259 3.18259 0 0 1 -2.26465-.939l-4.21772-4.19719a5.19917 5.19917 0 0 0 -7.35253-.00244l-4.22266 4.20166a3.181 3.181 0 0 1 -2.2627.937h-5.96a5.21126 5.21126 0 0 0 -5.20019 5.21.99973.99973 0 0 0 1.00004.99997z"/><path d="m9.74316 39.88721a3.22381 3.22381 0 0 1 .93653 2.26269v5.96a5.21629 5.21629 0 0 0 5.20019 5.22022h5.96a3.20474 3.20474 0 0 1 2.26368.92773l4.21972 4.209a5.1986 5.1986 0 0 0 7.35254.001l4.2168-4.20606a3.2078 3.2078 0 0 1 2.26758-.93164.99974.99974 0 0 0 1-1c-.27416-2.11475-3.81794-.46373-4.67572.51164l-4.22174 4.211a3.20746 3.20746 0 0 1 -4.52637-.001l-4.22461-4.21384a5.19755 5.19755 0 0 0 -3.67188-1.50781h-5.96a3.21369 3.21369 0 0 1 -3.20019-3.22022v-5.96a5.168 5.168 0 0 0 -1.52442-3.67871l-4.21386-4.19435a3.23367 3.23367 0 0 1 -.00586-4.54786l4.22168-4.20214a5.16637 5.16637 0 0 0 1.52246-3.67676v-.97022a1 1 0 0 0 -2 0v.97022a3.22228 3.22228 0 0 1 -.93457 2.26074l-4.22168 4.20216a5.24 5.24 0 0 0 .00195 7.376z"/><path d="m43.31348 22.10059a.99965.99965 0 0 0 0-1.41407 15.89474 15.89474 0 0 0 -11.31348-4.68652c-14.148-.06532-21.3391 17.34907-11.31618 27.31746 13.00225 12.46407 33.24762-1.94432 25.7155-18.29367a.99969.99969 0 0 0 -1.79871.87226c6.617 14.26851-11.17369 26.92818-22.50307 16.00712-8.76691-8.72379-2.47883-23.96014 9.90265-23.90308a13.90945 13.90945 0 0 1 9.89922 4.1005.99965.99965 0 0 0 1.41407 0z"/></svg>