<svg clip-rule="evenodd" fill-rule="evenodd" height="512" stroke-linejoin="round" stroke-miterlimit="2" viewBox="0 0 96 96" width="512" xmlns="http://www.w3.org/2000/svg"><path d="m80.249 76.318 11.55 11.55c.935.935.935 2.45 0 3.385 0 0-.14.14-.14.14-.934.934-2.45.934-3.384 0 0 0-9.55-9.55-9.55-9.55-.585-.586-1.536-.586-2.121 0-.586.585-.586 1.536 0 2.121 0 0 3.431 3.432 9.55 9.55 2.106 2.106 5.52 2.106 7.627 0l.139-.14c2.107-2.106 2.107-5.521 0-7.627l-11.946-11.946c1.943-3.301 3.057-7.145 3.057-11.247 0-12.261-9.954-22.215-22.214-22.215s-22.214 9.954-22.214 22.215c0 12.26 9.954 22.214 22.214 22.214 7.063 0 13.361-3.303 17.432-8.45zm-17.432-32.979c10.605 0 19.214 8.61 19.214 19.215 0 10.604-8.609 19.214-19.214 19.214s-19.214-8.61-19.214-19.214c0-10.605 8.609-19.215 19.214-19.215zm-49.391 6.663c0-.928-.369-1.818-1.026-2.475-.656-.656-1.546-1.025-2.474-1.025-1.725 0-4.202 0-5.926 0-.928 0-1.818.369-2.475 1.025-.656.657-1.025 1.547-1.025 2.475v27.554c0 .829.672 1.5 1.5 1.5h9.926c.828 0 1.5-.671 1.5-1.5zm17.176-4.987c0-1.933-1.567-3.5-3.5-3.5-1.724 0-4.201 0-5.926 0-1.933 0-3.5 1.567-3.5 3.5v32.541c0 .829.672 1.5 1.5 1.5h9.926c.828 0 1.5-.671 1.5-1.5zm11.676 31.041h-4.425v-38.007c0-.133.052-.26.146-.354.094-.093.221-.146.354-.146h5.925c.133 0 .26.053.354.146.094.094.146.221.146.354v5.593c0 .828.672 1.5 1.5 1.5s1.5-.672 1.5-1.5v-5.593c0-.928-.368-1.819-1.025-2.475-.656-.656-1.546-1.025-2.475-1.025-1.724 0-4.201 0-5.925 0-.928 0-1.819.369-2.475 1.025s-1.025 1.547-1.025 2.475v39.507c0 .829.671 1.5 1.5 1.5h5.925c.828 0 1.5-.672 1.5-1.5 0-.827-.672-1.5-1.5-1.5zm12.244-22.137c2.153-2.069 5.076-3.342 8.295-3.342 6.61 0 11.976 5.367 11.976 11.977s-5.366 11.976-11.976 11.976-11.976-5.366-11.976-11.976c0-1.616.32-3.157.901-4.563.316-.766-.049-1.643-.814-1.959-.765-.317-1.643.048-1.959.813-.727 1.76-1.128 3.688-1.128 5.709 0 8.266 6.71 14.976 14.976 14.976s14.976-6.71 14.976-14.976-6.71-14.977-14.976-14.977c-4.025 0-7.682 1.591-10.374 4.179-.597.573-.616 1.524-.042 2.121s1.524.616 2.121.042zm-26.92-8.904v31.041h-6.926v-31.041c0-.276.224-.5.5-.5h5.926c.276 0 .5.224.5.5zm-17.176 4.987v26.054h-6.926v-26.054c0-.132.053-.259.146-.353.094-.094.221-.147.354-.147h5.926c.132 0 .259.053.353.147s.147.221.147.353zm44.603-11.195v-14.493c0-.132.053-.259.147-.353.093-.094.221-.147.353-.147h5.926c.132 0 .26.053.353.147.094.094.147.221.147.353v12.493c0 .828.672 1.5 1.5 1.5s1.5-.672 1.5-1.5c0 0 0-8.517 0-12.493 0-.928-.369-1.818-1.025-2.474-.657-.657-1.547-1.026-2.475-1.026-1.725 0-4.202 0-5.926 0-.928 0-1.818.369-2.475 1.026-.656.656-1.025 1.546-1.025 2.474v14.493c0 .828.672 1.5 1.5 1.5s1.5-.672 1.5-1.5zm-5.661-28.496-12.184 8.555c-1.21-1.098-2.815-1.768-4.576-1.768-3.743 0-6.785 3.026-6.813 6.762l-12.308 2.682c-1.086-2.322-3.443-3.932-6.174-3.932-3.76 0-6.813 3.052-6.813 6.813 0 3.76 3.053 6.812 6.813 6.812 3.743 0 6.785-3.025 6.812-6.762l12.308-2.681c1.086 2.321 3.444 3.932 6.175 3.932 3.76 0 6.813-3.053 6.813-6.813 0-.917-.182-1.793-.511-2.592l12.184-8.554c1.21 1.097 2.815 1.767 4.576 1.767 3.76 0 6.813-3.053 6.813-6.813s-3.053-6.813-6.813-6.813-6.813 3.053-6.813 6.813c0 .918.182 1.793.511 2.592zm-42.055 22.924c-2.105 0-3.813-1.708-3.813-3.812 0-2.105 1.708-3.813 3.813-3.813 2.104 0 3.812 1.708 3.812 3.813 0 2.104-1.708 3.812-3.812 3.812zm28.409-11.523.013.018c.432.618.686 1.37.686 2.181 0 2.104-1.709 3.813-3.813 3.813s-3.813-1.709-3.813-3.813 1.709-3.813 3.813-3.813c1.285 0 2.423.638 3.114 1.614zm16.834-11.793-.013-.019c-.432-.618-.686-1.37-.686-2.181 0-2.104 1.709-3.813 3.813-3.813s3.813 1.709 3.813 3.813-1.709 3.813-3.813 3.813c-1.285 0-2.423-.638-3.114-1.613z"/></svg>